<?xml version="1.0" encoding="UTF-8" standalone="no"?>
<!-- Created with Inkscape (http://www.inkscape.org/) -->

<svg
    width="16mm"
    height="16mm"
    viewBox="0 0 16 16"
    id="svg5"
    version="1.1"
    xmlns="http://www.w3.org/2000/svg"
    xmlns:svg="http://www.w3.org/2000/svg">
    <defs
        id="defs2"/>
    <circle
        style="fill:#000000;fill-opacity:0.304171;stroke-width:0.111043;stroke-linecap:round"
        id="path1840"
        cx="8"
        cy="8"
        r="8"/>
    <g
        aria-label="&gt;"
        transform="matrix(0.19831622,0,0,0.24535182,-5.9185517,-2.0796301)"
        id="icons"
        style="font-size:70.7987px;font-family:Calibri;-inkscape-font-specification:Calibri;text-align:center;text-anchor:middle;fill:#ffffff;stroke-width:3.82982;stroke-linecap:round">
        <path
            d="m 84.893025,41.119084 q 0,0.587684 -0.06914,1.07166 -0.06914,0.449405 -0.172849,0.795102 -0.103709,0.345697 -0.276557,0.553115 -0.172848,0.172848 -0.380267,0.276557 L 56.857017,57.50511 q -0.380266,0.172849 -0.656824,0.207418 -0.276557,0 -0.449406,-0.241987 -0.138278,-0.241988 -0.207418,-0.725963 -0.06914,-0.518546 -0.06914,-1.313648 0,-0.967951 0.03457,-1.555636 0.03457,-0.587684 0.138278,-0.933381 0.138279,-0.380266 0.380267,-0.587684 0.241988,-0.207419 0.622254,-0.380267 L 78.947041,41.015374 56.787878,30.333344 Q 56.338472,30.125926 56.061914,29.953078 55.819927,29.74566 55.681648,29.365393 55.543369,28.985127 55.5088,28.397442 q -0.03457,-0.622254 -0.03457,-1.624774 0,-0.898812 0.06914,-1.382788 0.06914,-0.518545 0.207418,-0.725963 0.172849,-0.241987 0.449406,-0.207418 0.276558,0.03457 0.656824,0.241988 l 27.240905,13.724162 q 0.345697,0.172848 0.553115,0.864242 0.241988,0.656823 0.241988,1.832193 z"
            id="icon"/>
    </g>
</svg>
