<?xml version="1.0" encoding="UTF-8" standalone="no"?>
<!-- Created with Inkscape (http://www.inkscape.org/) -->

<svg
    width="280mm"
    height="280mm"
    viewBox="0 0 280 280"
    version="1.1"
    id="svg5"
    xmlns="http://www.w3.org/2000/svg"
    xmlns:svg="http://www.w3.org/2000/svg">
    <defs
        id="defs2"/>
    <g
        id="layer1"
        transform="translate(471.05729,354.89419)">
        <rect
            style="fill:#000000;fill-opacity:0.288568;stroke:none;stroke-width:3.06078;stroke-linecap:round;stroke-dasharray:none;stroke-opacity:1"
            id="rect7514"
            width="280"
            height="280"
            x="-471.05728"
            y="-354.8942"
            ry="25.812395"/>
        <g
            id="zoom-in"
            transform="translate(-217.74675,-142.72332)">
            <rect
                style="fill:#000000;fill-opacity:0.399586;stroke-width:0;stroke-linecap:round"
                id="rect234"
                width="50"
                height="50"
                x="-203.44952"
                y="-195.87001"
                ry="11.798593"/>
            <g
                aria-label="+"
                id="text2360"
                style="font-size:4.23333px;font-family:Calibri;-inkscape-font-specification:Calibri;text-align:center;text-anchor:middle;fill:#ffffff;fill-opacity:1;stroke-width:0;stroke-linecap:round"
                transform="matrix(13.235908,0,0,13.235908,-1412.3908,-1441.5382)">
                <path
                    d="m 94.136334,96.003681 q 0,0.03927 -0.0062,0.06821 -0.0062,0.02687 -0.01654,0.04547 -0.01033,0.0186 -0.0248,0.02687 -0.01447,0.0083 -0.03101,0.0083 H 93.37979 v 0.752409 q 0,0.01654 -0.0083,0.02894 -0.0083,0.01034 -0.02687,0.0186 -0.01654,0.0083 -0.04548,0.01447 -0.02894,0.0041 -0.07235,0.0041 -0.04134,0 -0.07235,-0.0041 -0.02894,-0.0062 -0.04754,-0.01447 -0.01654,-0.0083 -0.0248,-0.0186 -0.0083,-0.0124 -0.0083,-0.02894 v -0.752409 h -0.677994 q -0.0186,0 -0.03307,-0.0083 -0.0124,-0.0083 -0.02274,-0.02687 -0.01034,-0.0186 -0.01654,-0.04547 -0.0062,-0.02894 -0.0062,-0.06821 0,-0.03721 0.0062,-0.06408 0.0062,-0.02894 0.01654,-0.04754 0.01033,-0.0186 0.02274,-0.02687 0.01447,-0.0083 0.03101,-0.0083 h 0.680061 v -0.752408 q 0,-0.01654 0.0083,-0.02894 0.0083,-0.01447 0.0248,-0.02274 0.0186,-0.01033 0.04754,-0.01447 0.03101,-0.0062 0.07235,-0.0062 0.04341,0 0.07235,0.0062 0.02894,0.0041 0.04548,0.01447 0.0186,0.0083 0.02687,0.02274 0.0083,0.0124 0.0083,0.02894 v 0.752408 h 0.680061 q 0.01654,0 0.02894,0.0083 0.01447,0.0083 0.0248,0.02687 0.0124,0.0186 0.01654,0.04754 0.0062,0.02687 0.0062,0.06408 z"
                    id="path2369"
                    style="fill:#ffffff;fill-opacity:1"/>
            </g>
        </g>
        <g
            id="zoom-out"
            transform="translate(-94.162614,-198.43633)">
            <rect
                style="fill:#000000;fill-opacity:0.399586;stroke-width:0;stroke-linecap:round"
                id="rect2375"
                width="50"
                height="50"
                x="-196.75569"
                y="-140.157"
                ry="11.798593"/>
            <g
                aria-label="-"
                id="text2364"
                style="font-size:4.23333px;font-family:Calibri;-inkscape-font-specification:Calibri;text-align:center;text-anchor:middle;fill:#ffffff;fill-opacity:1;stroke-width:0;stroke-linecap:round"
                transform="matrix(23.836072,0,0,13.922356,-2223.1308,-1411.8164)">
                <path
                    d="m 86.567178,93.134024 q 0,0.08062 -0.0186,0.111621 -0.0186,0.03101 -0.05374,0.03101 h -0.864029 q -0.03721,0 -0.05581,-0.03101 -0.0186,-0.03307 -0.0186,-0.111621 0,-0.07855 0.0186,-0.109554 0.0186,-0.03101 0.05581,-0.03101 h 0.864029 q 0.01654,0 0.02894,0.0062 0.01447,0.0062 0.02274,0.02481 0.01034,0.01654 0.01447,0.04341 0.0062,0.02687 0.0062,0.06615 z"
                    id="path2372"
                    style="fill:#ffffff;fill-opacity:1"/>
            </g>
        </g>
        <g
            id="right"
            transform="translate(-215.62553,-143.11595)">
            <rect
                style="fill:#000000;fill-opacity:0.399586;stroke-width:0;stroke-linecap:round"
                id="rect7370"
                width="50"
                height="50"
                x="-75.292755"
                y="-63.377258"
                ry="11.798593"/>
            <g
                aria-label="&gt;"
                id="g7374"
                style="font-size:4.23333px;font-family:Calibri;-inkscape-font-specification:Calibri;text-align:center;text-anchor:middle;fill:#ffffff;fill-opacity:1;stroke-width:0;stroke-linecap:round"
                transform="matrix(13.235908,0,0,13.235908,-1042.9252,-1343.686)">
                <path
                    d="m 75.874881,98.620959 q 0,0.03514 -0.0041,0.06408 -0.0041,0.02687 -0.01033,0.04754 -0.0062,0.02067 -0.01654,0.03307 -0.01033,0.01034 -0.02274,0.01654 l -1.622639,0.818554 q -0.02274,0.01033 -0.03927,0.0124 -0.01654,0 -0.02687,-0.01447 -0.0083,-0.01447 -0.0124,-0.04341 -0.0041,-0.03101 -0.0041,-0.07855 0,-0.05788 0.0021,-0.09302 0.0021,-0.03514 0.0083,-0.05581 0.0083,-0.02274 0.02274,-0.03514 0.01447,-0.0124 0.03721,-0.02274 l 1.333251,-0.655257 -1.324983,-0.63872 q -0.02687,-0.0124 -0.04341,-0.02274 -0.01447,-0.0124 -0.02274,-0.03514 -0.0083,-0.02274 -0.01033,-0.05788 -0.0021,-0.03721 -0.0021,-0.09715 0,-0.05374 0.0041,-0.08268 0.0041,-0.03101 0.0124,-0.04341 0.01034,-0.01447 0.02687,-0.0124 0.01654,0.0021 0.03927,0.01447 l 1.62884,0.820621 q 0.02067,0.01033 0.03307,0.05168 0.01447,0.03927 0.01447,0.109553 z"
                    id="path7372"
                    style="fill:#ffffff;fill-opacity:1"/>
            </g>
        </g>
        <g
            id="left"
            transform="translate(-228.96494,-143.15679)">
            <rect
                style="fill:#000000;fill-opacity:0.399586;stroke-width:0;stroke-linecap:round"
                id="rect7376"
                width="50"
                height="50"
                x="142.23134"
                y="13.336417"
                ry="11.798593"
                transform="scale(-1)"/>
            <g
                aria-label="&gt;"
                id="g7380"
                style="font-size:4.23333px;font-family:Calibri;-inkscape-font-specification:Calibri;text-align:center;text-anchor:middle;fill:#ffffff;fill-opacity:1;stroke-width:0;stroke-linecap:round"
                transform="matrix(-13.235908,0,0,-13.235908,825.4012,1266.9724)">
                <path
                    d="m 75.874881,98.620959 q 0,0.03514 -0.0041,0.06408 -0.0041,0.02687 -0.01033,0.04754 -0.0062,0.02067 -0.01654,0.03307 -0.01033,0.01034 -0.02274,0.01654 l -1.622639,0.818554 q -0.02274,0.01033 -0.03927,0.0124 -0.01654,0 -0.02687,-0.01447 -0.0083,-0.01447 -0.0124,-0.04341 -0.0041,-0.03101 -0.0041,-0.07855 0,-0.05788 0.0021,-0.09302 0.0021,-0.03514 0.0083,-0.05581 0.0083,-0.02274 0.02274,-0.03514 0.01447,-0.0124 0.03721,-0.02274 l 1.333251,-0.655257 -1.324983,-0.63872 q -0.02687,-0.0124 -0.04341,-0.02274 -0.01447,-0.0124 -0.02274,-0.03514 -0.0083,-0.02274 -0.01033,-0.05788 -0.0021,-0.03721 -0.0021,-0.09715 0,-0.05374 0.0041,-0.08268 0.0041,-0.03101 0.0124,-0.04341 0.01034,-0.01447 0.02687,-0.0124 0.01654,0.0021 0.03927,0.01447 l 1.62884,0.820621 q 0.02067,0.01033 0.03307,0.05168 0.01447,0.03927 0.01447,0.109553 z"
                    id="path7378"
                    style="fill:#ffffff;fill-opacity:1"/>
            </g>
        </g>
        <g
            id="up"
            transform="translate(-249.14137,-158.54273)">
            <rect
                style="fill:#000000;fill-opacity:0.399586;stroke-width:0;stroke-linecap:round"
                id="rect2377"
                width="50"
                height="50"
                x="63.248623"
                y="-107.18273"
                ry="11.798593"
                transform="rotate(-90)"/>
            <g
                aria-label="&gt;"
                id="text2356"
                style="font-size:4.23333px;font-family:Calibri;-inkscape-font-specification:Calibri;text-align:center;text-anchor:middle;fill:#ffffff;fill-opacity:1;stroke-width:0;stroke-linecap:round"
                transform="matrix(0,-13.235908,13.235908,0,-1387.4915,904.38396)">
                <path
                    d="m 75.874881,98.620959 q 0,0.03514 -0.0041,0.06408 -0.0041,0.02687 -0.01033,0.04754 -0.0062,0.02067 -0.01654,0.03307 -0.01033,0.01034 -0.02274,0.01654 l -1.622639,0.818554 q -0.02274,0.01033 -0.03927,0.0124 -0.01654,0 -0.02687,-0.01447 -0.0083,-0.01447 -0.0124,-0.04341 -0.0041,-0.03101 -0.0041,-0.07855 0,-0.05788 0.0021,-0.09302 0.0021,-0.03514 0.0083,-0.05581 0.0083,-0.02274 0.02274,-0.03514 0.01447,-0.0124 0.03721,-0.02274 l 1.333251,-0.655257 -1.324983,-0.63872 q -0.02687,-0.0124 -0.04341,-0.02274 -0.01447,-0.0124 -0.02274,-0.03514 -0.0083,-0.02274 -0.01033,-0.05788 -0.0021,-0.03721 -0.0021,-0.09715 0,-0.05374 0.0041,-0.08268 0.0041,-0.03101 0.0124,-0.04341 0.01034,-0.01447 0.02687,-0.0124 0.01654,0.0021 0.03927,0.01447 l 1.62884,0.820621 q 0.02067,0.01033 0.03307,0.05168 0.01447,0.03927 0.01447,0.109553 z"
                    id="path2366"
                    style="fill:#ffffff;fill-opacity:1"/>
            </g>
        </g>
        <g
            id="reset"
            transform="translate(-223.84801,-145.65071)">
            <rect
                style="fill:#000000;fill-opacity:0.399586;stroke-width:0;stroke-linecap:round"
                id="rect7368"
                width="50"
                height="50"
                x="-132.47609"
                y="-60.842495"
                ry="11.798593"/>
            <path
                id="path2485"
                style="color:#000000;fill:#ffffff;fill-opacity:1;stroke-linecap:round;-inkscape-stroke:none"
                d="m -107.22882,-52.482047 c -9.16631,0 -16.64085,7.47192 -16.64085,16.63827 0,9.16632 7.47454,16.64084 16.64085,16.64084 5.51828,10e-6 10.42164,-2.70946 13.45085,-6.86573 l -3.24993,-2.29495 c -2.2952,3.13294 -6.00076,5.16041 -10.20092,5.16041 -7.00459,0 -12.64058,-5.63601 -12.64058,-12.64057 0,-7.00459 5.63599,-12.63851 12.64058,-12.63851 3.34541,-1e-5 6.37704,1.28656 8.63254,3.39256 l -3.99768,2.59054 10.25053,2.98586 1.26091,-10.44639 -4.10104,2.65772 c -3.03392,-3.18774 -7.31341,-5.18005 -12.04526,-5.18005 z"/>
        </g>
        <g
            id="down"
            transform="translate(-225.47492,-144.78431)">
            <rect
                style="fill:#000000;fill-opacity:0.399586;stroke-width:0;stroke-linecap:round"
                id="rect7398"
                width="50"
                height="50"
                x="3.5892496"
                y="80.849174"
                ry="11.798593"
                transform="rotate(90)"/>
            <g
                aria-label="&gt;"
                id="g7402"
                style="font-size:4.23333px;font-family:Calibri;-inkscape-font-specification:Calibri;text-align:center;text-anchor:middle;fill:#ffffff;fill-opacity:1;stroke-width:0;stroke-linecap:round"
                transform="matrix(0,13.235908,-13.235908,0,1199.4597,-964.04326)">
                <path
                    d="m 75.874881,98.620959 q 0,0.03514 -0.0041,0.06408 -0.0041,0.02687 -0.01033,0.04754 -0.0062,0.02067 -0.01654,0.03307 -0.01033,0.01034 -0.02274,0.01654 l -1.622639,0.818554 q -0.02274,0.01033 -0.03927,0.0124 -0.01654,0 -0.02687,-0.01447 -0.0083,-0.01447 -0.0124,-0.04341 -0.0041,-0.03101 -0.0041,-0.07855 0,-0.05788 0.0021,-0.09302 0.0021,-0.03514 0.0083,-0.05581 0.0083,-0.02274 0.02274,-0.03514 0.01447,-0.0124 0.03721,-0.02274 l 1.333251,-0.655257 -1.324983,-0.63872 q -0.02687,-0.0124 -0.04341,-0.02274 -0.01447,-0.0124 -0.02274,-0.03514 -0.0083,-0.02274 -0.01033,-0.05788 -0.0021,-0.03721 -0.0021,-0.09715 0,-0.05374 0.0041,-0.08268 0.0041,-0.03101 0.0124,-0.04341 0.01034,-0.01447 0.02687,-0.0124 0.01654,0.0021 0.03927,0.01447 l 1.62884,0.820621 q 0.02067,0.01033 0.03307,0.05168 0.01447,0.03927 0.01447,0.109553 z"
                    id="path7400"
                    style="fill:#ffffff;fill-opacity:1"/>
            </g>
        </g>
    </g>
</svg>
