<?xml version="1.0" encoding="UTF-8" standalone="no"?>
<svg
    width="26.690296mm"
    height="19.473869mm"
    viewBox="0 0 100.87672 73.602023"
    preserveAspectRatio="xMidYMid"
    id="svg18"
    xmlns="http://www.w3.org/2000/svg"
>
    <defs
        id="defs22">
        <marker
            style="overflow:visible"
            id="marker2445"
            refX="0"
            refY="0"
            orient="auto"
            markerWidth="5.6666665"
            markerHeight="5.6666665"
            viewBox="0 0 5.6666667 5.6666667"
            preserveAspectRatio="xMidYMid">
            <path
                transform="scale(0.5)"
                style="fill:context-stroke;fill-rule:evenodd;stroke:context-stroke;stroke-width:1pt"
                d="M 5,0 C 5,2.76 2.76,5 0,5 -2.76,5 -5,2.76 -5,0 c 0,-2.76 2.3,-5 5,-5 2.76,0 5,2.24 5,5 z"
                id="path2443"/>
        </marker>
        <marker
            style="overflow:visible"
            id="Dot"
            refX="0"
            refY="0"
            orient="auto"
            markerWidth="5.6666665"
            markerHeight="5.6666665"
            viewBox="0 0 5.6666667 5.6666667"
            preserveAspectRatio="xMidYMid">
            <path
                transform="scale(0.5)"
                style="fill:context-stroke;fill-rule:evenodd;stroke:context-stroke;stroke-width:1pt"
                d="M 5,0 C 5,2.76 2.76,5 0,5 -2.76,5 -5,2.76 -5,0 c 0,-2.76 2.3,-5 5,-5 2.76,0 5,2.24 5,5 z"
                id="Dot1"/>
        </marker>
    </defs>
    <g
        id="g3008"
        transform="translate(21.187538,-151.88109)">
        <g
            id="g2981">
            <path
                style="color:#000000;fill:none;fill-opacity:1;fill-rule:nonzero;stroke:#2e3349;stroke-width:3.31087;stroke-linecap:round;stroke-dasharray:none;stroke-opacity:1;"
                d="m 27.317315,202.83813 -0.804784,-0.89867 -14.03545,-15.65844 c -0.03392,-0.0372 -0.0683,-0.0726 -0.101936,-0.10995 l -0.0028,-0.003 -1.232069,-1.59494 C 8.929224,181.32142 7.579114,177.24182 7.573134,173.27819 v -0.003 c -7.79e-4,-10.88993 8.851448,-19.73948 19.741415,-19.73866 10.888864,7.5e-4 19.736827,8.84983 19.736011,19.73869 -0.0015,5.41617 -2.228289,10.59662 -6.15929,14.32249 l 0.06437,-0.067 z m -0.0053,-3.23523 12.063727,-13.53918 0.0322,-0.0295 c 3.502437,-3.31973 5.487223,-7.93275 5.488569,-12.75853 7.28e-4,-9.7242 -7.85767,-17.58388 -17.58187,-17.58455 -9.725193,-7.3e-4 -17.587964,7.85935 -17.587236,17.58455 0.0063,4.15012 1.479996,8.16324 4.16074,11.33138 l 0.321913,0.38092 z"
                id="location"/>
            <g
                id="code"
                transform="translate(-2.45623)">
                <path
                    d="m 39.680518,172.55153 -5.226727,-1.84311 v -2.56751 l 7.895109,3.34694 v 2.16404 l -7.895109,3.34694 v -2.56751 z"
                    style="font-weight:bold;font-size:16px;font-family:Roboto;-inkscape-font-specification:'Roboto Bold';text-align:center;text-anchor:middle;fill:#f2d082;fill-opacity:1;stroke-width:1.01996;stroke-linecap:round"
                    id="path306"/>
                <path
                    d="m 31.436962,165.73845 h 1.971483 l -4.914955,14.49729 h -1.971486 z"
                    style="font-weight:bold;font-size:16px;font-family:Roboto;-inkscape-font-specification:'Roboto Bold';text-align:center;text-anchor:middle;fill:#f98f00;fill-opacity:1;stroke-width:1.01996;stroke-linecap:round"
                    id="path308"/>
                <path
                    d="m 19.846466,172.57904 5.327593,1.86145 v 2.54917 l -7.986805,-3.34694 v -2.15487 l 7.986805,-3.35611 v 2.55834 z"
                    style="font-weight:bold;font-size:16px;font-family:Roboto;-inkscape-font-specification:'Roboto Bold';text-align:center;text-anchor:middle;fill:#55565a;fill-opacity:1;stroke-width:1.01996;stroke-linecap:round"
                    id="path310"/>
            </g>
        </g>
        <path
            style="fill:none;fill-opacity:1;stroke:#2e3349;stroke-width:2.75528;stroke-linecap:round;stroke-dasharray:none;stroke-opacity:1;marker-start:url(#Dot);marker-mid:url(#marker2445);marker-end:url(#marker2445)"
            d="m -13.385217,212.89966 c 53.833147,33.4814 45.385873,-20.93631 85.271335,1.57301"
            id="path354"/>
    </g>
</svg>
