<?xml version="1.0" encoding="UTF-8" standalone="no"?>
<svg
   width="37.251499mm"
   height="8.8975077mm"
   viewBox="0 0 140.79307 33.628374"
   preserveAspectRatio="xMidYMid"
   id="svg18"
   version="1.1"
   sodipodi:docname="icon.svg"
   inkscape:version="1.2.2 (b0a8486541, 2022-12-01)"
   xmlns:inkscape="http://www.inkscape.org/namespaces/inkscape"
   xmlns:sodipodi="http://sodipodi.sourceforge.net/DTD/sodipodi-0.dtd"
   xmlns="http://www.w3.org/2000/svg"
   xmlns:svg="http://www.w3.org/2000/svg">
  <sodipodi:namedview
     id="namedview8890"
     pagecolor="#505050"
     bordercolor="#eeeeee"
     borderopacity="1"
     inkscape:showpageshadow="0"
     inkscape:pageopacity="0"
     inkscape:pagecheckerboard="0"
     inkscape:deskcolor="#505050"
     inkscape:document-units="mm"
     showgrid="false"
     inkscape:zoom="6.8952613"
     inkscape:cx="25.887344"
     inkscape:cy="17.910851"
     inkscape:window-width="1366"
     inkscape:window-height="736"
     inkscape:window-x="0"
     inkscape:window-y="0"
     inkscape:window-maximized="1"
     inkscape:current-layer="svg18" />
  <defs
     id="defs22" />
  <path
     style="color:#000000;fill:#2e3349;stroke-width:0.936861;stroke-linecap:round;-inkscape-stroke:none"
     d="M 13.467482,33.628374 12.918538,33.015387 3.3449482,22.334759 c -0.023141,-0.02539 -0.046591,-0.04946 -0.069534,-0.07502 l -0.00187,-0.0019 -0.8403941,-1.08791 C 0.92498939,18.951937 0.00407824,16.169243 3.8588624e-8,13.465649 v -0.0019 C -5.5736141e-4,6.0357221 6.0375517,-5.5785164e-4 13.465605,1.4836328e-7 20.892906,5.1014836e-4 26.928107,6.0364741 26.92755,13.463776 c -0.001,3.69437 -1.519917,7.227958 -4.201255,9.769379 l 0.04391,-0.04575 z m -0.0036,-2.206756 8.228676,-9.235074 0.02196,-0.02012 C 24.103532,19.90203 25.457356,16.755492 25.458274,13.463826 25.458771,6.8309421 20.098553,1.4698481 13.46567,1.4693911 6.8321093,1.4688941 1.4689084,6.8302651 1.4694059,13.463826 c 0.00431,2.830794 1.0095058,5.568148 2.8380424,7.729135 l 0.2195777,0.259834 z"
     id="path304" />
  <g
     id="g312"
     transform="scale(0.85995557)">
    <path
       d="m 24.857377,15.257162 -4.851386,-1.710751 v -2.383138 l 7.328147,3.10659 v 2.008644 l -7.328147,3.10659 V 17.00196 Z"
       style="font-weight:bold;font-size:16px;font-family:Roboto;-inkscape-font-specification:'Roboto Bold';text-align:center;text-anchor:middle;fill:#f2d082;fill-opacity:1;stroke-width:0.946718;stroke-linecap:round"
       id="path306" />
    <path
       d="m 17.205805,8.9333378 h 1.829908 L 14.473708,22.389552 h -1.829909 z"
       style="font-weight:bold;font-size:16px;font-family:Roboto;-inkscape-font-specification:'Roboto Bold';text-align:center;text-anchor:middle;fill:#f98f00;fill-opacity:1;stroke-width:0.946718;stroke-linecap:round"
       id="path308" />
    <path
       d="m 6.447642,15.282696 4.945009,1.727775 v 2.366114 L 3.9793927,16.269996 v -2.000133 l 7.4132583,-3.115101 v 2.374626 z"
       style="font-weight:bold;font-size:16px;font-family:Roboto;-inkscape-font-specification:'Roboto Bold';text-align:center;text-anchor:middle;fill:#55565a;fill-opacity:1;stroke-width:0.946718;stroke-linecap:round"
       id="path310" />
  </g>
</svg>
